<?xml version="1.0" encoding="UTF-8" standalone="no"?>
<!-- Created with Inkscape (http://www.inkscape.org/) -->

<svg
   xmlns:dc="http://purl.org/dc/elements/1.1/"
   xmlns:cc="http://creativecommons.org/ns#"
   xmlns:rdf="http://www.w3.org/1999/02/22-rdf-syntax-ns#"
   xmlns:svg="http://www.w3.org/2000/svg"
   xmlns="http://www.w3.org/2000/svg"
   xmlns:xlink="http://www.w3.org/1999/xlink"
   xmlns:sodipodi="http://sodipodi.sourceforge.net/DTD/sodipodi-0.dtd"
   xmlns:inkscape="http://www.inkscape.org/namespaces/inkscape"
   width="210mm"
   height="297mm"
   viewBox="0 0 210 297"
   version="1.1"
   id="svg8"
   inkscape:version="0.92.2 (5c3e80d, 2017-08-06)"
   sodipodi:docname="logo.svg">
  <defs
     id="defs2" />
  <sodipodi:namedview
     id="base"
     pagecolor="#ffffff"
     bordercolor="#666666"
     borderopacity="1.0"
     inkscape:pageopacity="0.0"
     inkscape:pageshadow="2"
     inkscape:zoom="0.35"
     inkscape:cx="400"
     inkscape:cy="560"
     inkscape:document-units="mm"
     inkscape:current-layer="layer1"
     showgrid="false"
     inkscape:window-width="1920"
     inkscape:window-height="1018"
     inkscape:window-x="-8"
     inkscape:window-y="-8"
     inkscape:window-maximized="1" />
  <metadata
     id="metadata5">
    <rdf:RDF>
      <cc:Work
         rdf:about="">
        <dc:format>image/svg+xml</dc:format>
        <dc:type
           rdf:resource="http://purl.org/dc/dcmitype/StillImage" />
        <dc:title />
      </cc:Work>
    </rdf:RDF>
  </metadata>
  <g
     inkscape:label="Capa 1"
     inkscape:groupmode="layer"
     id="layer1">
    <path
       sodipodi:type="star"
       id="path30"
       sodipodi:sides="5"
       sodipodi:cx="97.51786"
       sodipodi:cy="137.49403"
       sodipodi:r1="82.896652"
       sodipodi:r2="41.448326"
       sodipodi:arg1="2.9674487"
       sodipodi:arg2="3.5957672"
       inkscape:flatsided="false"
       inkscape:rounded="0"
       inkscape:randomized="0"
       d="M 15.875002,151.85713 60.271421,119.3098 58.628713,64.285502 103.30232,96.451327 155.1259,77.885576 l -16.78661,52.426904 33.67145,43.55003 -55.0483,0.23579 -31.013494,45.48115 -17.235107,-52.28119 z"
       inkscape:transform-center-x="3.5749925"
       inkscape:transform-center-y="4.4384387"
       style="stroke-width:0.26458332" />
    <path
       sodipodi:type="star"
       id="path32"
       sodipodi:sides="5"
       sodipodi:cx="90.714287"
       sodipodi:cy="138.25002"
       sodipodi:r1="88.76889"
       sodipodi:r2="44.384445"
       sodipodi:arg1="-0.085262869"
       sodipodi:arg2="0.54305566"
       inkscape:flatsided="false"
       inkscape:rounded="0"
       inkscape:randomized="0"
       d="M 179.16071,130.69049 128.7133,161.18587 125.23527,220.03154 80.64333,181.4768 23.603005,196.3533 46.491076,142.02978 14.716252,92.378296 73.453796,97.359253 110.8562,51.796448 124.26993,109.19837 Z"
       inkscape:transform-center-x="-6.2241929"
       inkscape:transform-center-y="-2.336023"
       style="stroke-width:0.26458332" />
    <flowRoot
       xml:space="preserve"
       id="flowRoot34"
       style="font-style:normal;font-weight:normal;font-size:96.00000121px;line-height:1.25;font-family:sans-serif;letter-spacing:0px;word-spacing:0px;fill:#000000;fill-opacity:1;stroke:none;"
       transform="scale(0.26458333)"><flowRegion
         id="flowRegion36"
         style="font-size:96.00000121px;"><rect
           id="rect38"
           width="258.67798"
           height="158.27179"
           x="227.7975"
           y="450.93466"
           style="font-size:96.00000121px;" /></flowRegion><flowPara
         id="flowPara40"
         style="fill:#00ffff;font-size:96.00000121px;-inkscape-font-specification:Algerian;font-family:Algerian;font-weight:normal;font-style:normal;font-stretch:normal;font-variant:normal;">HAPF</flowPara></flowRoot>    <use
       id="use196"
       inkscape:spray-origin="#flowRoot34"
       xlink:href="#flowRoot34"
       x="0"
       y="0"
       width="100%"
       height="100%"
       transform="translate(-47.879061,-12.294251)" />
    <use
       id="use198"
       inkscape:spray-origin="#flowRoot34"
       xlink:href="#flowRoot34"
       x="0"
       y="0"
       width="100%"
       height="100%"
       transform="translate(62.221662,-7.8768838)" />
    <use
       id="use200"
       inkscape:spray-origin="#flowRoot34"
       xlink:href="#flowRoot34"
       x="0"
       y="0"
       width="100%"
       height="100%"
       transform="translate(-3.72153,50.113479)" />
    <use
       id="use206"
       inkscape:spray-origin="#flowRoot34"
       xlink:href="#flowRoot34"
       x="0"
       y="0"
       width="100%"
       height="100%"
       transform="translate(26.914863,30.442437)" />
    <use
       id="use210"
       inkscape:spray-origin="#flowRoot34"
       xlink:href="#flowRoot34"
       x="0"
       y="0"
       width="100%"
       height="100%"
       transform="translate(-1.448545,-40.877816)" />
    <path
       style="fill:#00ffff;stroke:#000000;stroke-width:0.26458332px;stroke-linecap:butt;stroke-linejoin:miter;stroke-opacity:1"
       d="m 60.271421,119.30979 c -2.703571,-1.4981 -5.303642,-3.20049 -8.110707,-4.49431 -0.228846,-0.10548 0,0.50396 0,0.75595 0,0.75595 0,1.5119 0,2.26785 0,0.35643 -0.03426,3.7455 0,3.77977 0.178179,0.17818 0.577771,-0.17818 0.755952,0 0.03426,0.0343 0,3.42333 0,3.77976 0,5.79563 0,11.59127 0,17.3869 0,3.77977 0,7.55953 0,11.33929 0,0.18334 0.02432,2.24354 0,2.26785 -0.178181,0.17819 -0.577773,-0.17817 -0.755952,0 -0.178181,0.17819 0,0.50397 0,0.75596 0,0.25198 0,0.50397 0,0.75595 0,1.00794 0,2.01587 0,3.02381 0,0.25198 0.251984,0.75595 0,0.75595 -0.251983,0 0,-1.00793 0,-0.75595 0,0.75595 0,1.51191 0,2.26786 0,0.25198 0.251984,0.75595 0,0.75595 -0.251983,0 0,-1.00794 0,-0.75595 0,3.44131 0.35636,0.0432 -0.755954,2.26785 -0.09939,0.19878 0,2.62851 0,3.02381 0,0.25199 0,0.50397 0,0.75595 0,0.25199 -0.178178,0.57778 0,0.75596 0.356359,0.35636 1.155547,-0.35636 1.511906,0 0.178181,0.17818 0,0.50397 0,0.75595 0,0.25198 0,0.50397 0,0.75595 0,0.25199 0,0.50397 0,0.75595 0,0.25199 -0.178181,0.57778 0,0.75596 0.178181,0.17818 0.577773,-0.17818 0.755952,0 1.564092,1.56409 -2.39014,-0.0611 0.755954,1.5119 0.22538,0.11269 0.503968,0 0.755951,0 0.251984,0 0.533763,0.11886 0.755952,0 4.315127,-2.30836 8.515575,-4.82496 12.773364,-7.23745"
       id="path42"
       inkscape:connector-curvature="0" />
    <path
       style="fill:#00ffff;stroke:#000000;stroke-width:0.26458332px;stroke-linecap:butt;stroke-linejoin:miter;stroke-opacity:1"
       d="m 60.271421,119.30979 c 5.107937,0.26578 10.235044,0.28153 15.323817,0.79735 0.501399,0.0508 -0.225382,1.06114 0,1.51191 0.159367,0.31873 0.596583,0.43721 0.755952,0.75595 0.356359,0.71272 0.399592,1.55514 0.755952,2.26785 0.159369,0.31874 0.596585,0.43722 0.755951,0.75596 0.112691,0.22538 0,0.50397 0,0.75595 0,0.25198 0,0.50397 0,0.75595 0,1.9883 0.606806,-0.29829 1.511906,1.51191 0.223015,0.44602 -0.173323,1.74789 0,2.26786 0.178181,0.53453 0.54669,0.98875 0.755952,1.5119 0.295941,0.73985 0.460012,1.528 0.755954,2.26786 0.209261,0.52315 0.619294,0.96527 0.755951,1.5119 0.12223,0.48892 -0.159369,1.0338 0,1.51191 0.112692,0.33807 0.596583,0.43721 0.755952,0.75595 0.11503,0.23006 0,1.92741 0,2.26785 0,1.70788 -0.112691,-0.33807 0.755952,2.26786 0.217855,0.65356 -0.240514,3.29873 0,3.77977 0.159369,0.31873 0.596585,0.43721 0.755954,0.75595 0.136689,0.27337 0,3.25396 0,3.77976 0,0.25198 -0.178181,0.57777 0,0.75595 0.178178,0.17818 0.577771,-0.17818 0.755952,0 0.234079,0.23408 -0.23408,3.54568 0,3.77976 0.178181,0.17818 0.577773,-0.17818 0.755951,0 0.178181,0.17818 0,0.50397 0,0.75595 0.251984,0 0.577773,-0.17817 0.755954,0 0.181904,0.18191 -0.181906,2.84191 0,3.02382 0.178179,0.17817 0.577771,-0.17819 0.755952,0 0.377976,0.37797 -0.377976,1.88988 0,2.26785 0.178178,0.17818 0.577773,-0.17818 0.755952,0 0.178181,0.17818 0,0.50397 0,0.75596 0,0.25198 0,0.50396 0,0.75595 0,0.25198 0,0.50396 0,0.75595 0,0.25198 0.251984,0.75595 0,0.75595 -0.251984,0 -0.251984,-0.75595 0,-0.75595 0.356359,0 0.503967,0.50397 0.755951,0.75595"
       id="path44"
       inkscape:connector-curvature="0" />
    <path
       style="fill:#00ffff;stroke:#000000;stroke-width:0.26458332px;stroke-linecap:butt;stroke-linejoin:miter;stroke-opacity:1"
       d="m 46.491075,142.02978 c -1.637898,3.0238 -3.480853,5.94522 -4.913694,9.07141 -0.104992,0.22907 0.503968,0 0.755952,0 0.251984,0 0.503968,0 0.755951,0 0.755955,0 1.534478,0.18334 2.267858,0 0.546632,-0.13666 1.007938,-0.50397 1.511906,-0.75595 1.007935,-0.50397 1.977501,-1.09339 3.023809,-1.51191 0.739852,-0.29594 1.528006,-0.46001 2.267857,-0.75595 1.046306,-0.41852 1.954731,-1.15555 3.023809,-1.5119 0.680358,-0.22679 1.5875,0.22678 2.267858,0 0.338071,-0.1127 0.437213,-0.59659 0.755952,-0.75596 2.015873,0 -0.251984,0.25198 0.755951,-0.75595 0.154546,-0.15454 1.96813,0.14986 2.267858,0 0.318738,-0.15937 0.437216,-0.59658 0.755951,-0.75595 0.225383,-0.11269 0.503971,0 0.755955,0 1.123092,0 2.083839,0.18402 3.023809,-0.75595 0.178178,-0.17818 -0.178181,-0.57778 0,-0.75596 0.377975,-0.37797 1.889881,0.37798 2.267857,0 0.178179,-0.17818 -0.178181,-0.57777 0,-0.75595 0.377976,-0.37798 1.889879,0.37798 2.267858,0 0.178178,-0.17818 -0.178181,-0.57777 0,-0.75595 0.178178,-0.17818 0.57777,0.17818 0.755951,0 0.178179,-0.17818 -0.178181,-0.57777 0,-0.75596 0.377976,-0.37797 1.889882,0.37798 2.267858,0 0.178178,-0.17817 -0.178181,-0.57777 0,-0.75595 0.356359,-0.35636 1.06114,0.22539 1.511903,0 0.318738,-0.15937 0.437216,-0.59658 0.755954,-0.75595 0.22538,-0.11269 0.530569,0.11269 0.755952,0 0.637474,-0.31874 0.874429,-1.19317 1.511903,-1.5119 0.225383,-0.1127 0.577773,0.17818 0.755954,0 0.178179,-0.17818 -0.178181,-0.57778 0,-0.75596 0.154544,-0.15454 1.968127,0.14987 2.267858,0 0.637474,-0.31873 0.874429,-1.19316 1.511903,-1.5119 0.299731,-0.14986 2.113314,0.15454 2.267858,0 0.178181,-0.17818 -0.178181,-0.57777 0,-0.75595 0.178181,-0.17818 0.503967,0 0.755951,0 0.251984,0 0.503968,0 0.755954,0"
       id="path46"
       inkscape:connector-curvature="0" />
    <path
       style="fill:#00ffff;stroke:#000000;stroke-width:0.26458332px;stroke-linecap:butt;stroke-linejoin:miter;stroke-opacity:1"
       d="m 88.446424,164.70833 c -0.251982,1.76389 -0.463024,3.53411 -0.755949,5.29167 -0.04143,0.24855 0,-0.50397 0,-0.75596 0,-0.25198 -0.178179,-0.57777 0,-0.75595 0.178181,-0.17818 0.577773,0.17818 0.755951,0 0.02432,-0.0243 0,-2.08452 0,-2.26785 0,-0.50397 -0.159366,-1.0338 0,-1.51191 0.178181,-0.53454 0.577774,-0.97737 0.755955,-1.5119 0.142168,-0.42651 0,-1.77112 0,-2.26786 0,-1.25992 0,-2.51984 0,-3.77976 0,-5.54365 0,-11.08731 0,-16.63096 0,-2.51984 0,-5.03968 0,-7.55952 0,-0.50397 0,-1.00794 0,-1.5119 0,-0.50397 -0.122233,-1.02299 0,-1.51191 0.136657,-0.54663 0.57777,-0.97736 0.755951,-1.5119 0.07968,-0.23906 0,-0.50397 0,-0.75595 0,-0.75596 0,-1.51191 0,-2.26786 0,-2.01587 0,-4.03175 0,-6.04762 0.251985,1.25992 0.349641,2.56083 0.755954,3.77976 0.112691,0.33807 0.596583,0.43722 0.755952,0.75595 0.302381,0.60477 -0.302381,1.6631 0,2.26786 0.159369,0.31874 0.596584,0.43722 0.755952,0.75595 0.302381,0.60477 -0.30238,1.6631 0,2.26786 0.159369,0.31874 0.596584,0.43722 0.755953,0.75595 0.237566,0.47514 -0.237567,2.54868 0,3.02381 0.159369,0.31874 0.596583,0.43722 0.755952,0.75596 0.225382,0.45076 -0.356359,1.15554 0,1.5119 0.17818,0.17818 0.577773,-0.17818 0.755953,0 0.02431,0.0243 0,2.08452 0,2.26786 0,5.58858 0,13.3751 0,16.63095 0,2.34312 0.04583,7.52515 0,7.55952 -1.803053,1.35229 -4.031748,2.01587 -6.047622,3.02381"
       id="path48"
       inkscape:connector-curvature="0" />
    <path
       style="fill:#00ffff;stroke:#000000;stroke-width:0.26458332px;stroke-linecap:butt;stroke-linejoin:miter;stroke-opacity:1"
       d="m 89.95833,119.35119 c 18.70495,11.69059 1.077661,2.15929 7.559526,3.77976 1.131478,0.28287 2.966824,1.86139 3.779764,2.26786 0.71272,0.35636 1.528,0.46001 2.26785,0.75595 0.10451,0.0418 2.98816,1.50477 3.02381,1.51191 0.74128,0.14825 1.51951,-0.10691 2.26786,0 1.02852,0.14692 1.99899,0.58514 3.02381,0.75595 0.99422,0.1657 2.01587,0 3.02381,0 0.318,0 4.31084,-0.11244 4.53571,0 0.31874,0.15937 0.43722,0.59658 0.75596,0.75595 0.45076,0.22538 1.15554,-0.35636 1.5119,0 0,2.01587 -0.25198,-0.25198 0.75595,0.75595 0.17818,0.17818 -0.17817,0.57777 0,0.75596 0.35636,0.35635 1.15555,-0.35636 1.51191,0 0.17818,0.17817 -0.11269,0.53056 0,0.75595 0.15937,0.31874 0.59658,0.43721 0.75595,0.75595 0.11503,0.23006 0,1.92741 0,2.26786 0,1.76389 0,3.52777 0,5.29166 0,0.25199 0,0.50397 0,0.75595 0,0.25199 0.17818,0.57778 0,0.75596 -0.17818,0.17818 -0.57777,-0.17818 -0.75595,0 -0.17818,0.17818 0.17818,0.57777 0,0.75595 -1.00794,1.00794 -0.75595,-1.25992 -0.75595,0.75595"
       id="path50"
       inkscape:connector-curvature="0" />
    <path
       style="fill:none;stroke:#000000;stroke-width:0.26458332px;stroke-linecap:butt;stroke-linejoin:miter;stroke-opacity:1"
       d="m 89.95833,119.35119 c 2.519844,2.77182 5.039685,5.54365 7.559526,8.31548 0.251984,0 0.577774,-0.17818 0.755952,0 0.178181,0.17817 -0.178178,0.57777 0,0.75595 0.398423,0.39842 1.043083,0.4434 1.511906,0.75595 0.296506,0.19767 0.437216,0.59658 0.755956,0.75595 0.22538,0.11269 0.54628,-0.13977 0.75595,0 0.59302,0.39535 1.00794,1.00794 1.5119,1.51191 0.25199,0.25198 0.43722,0.59658 0.75595,0.75595 0.22539,0.11269 0.53058,-0.11269 0.75596,0 0.31873,0.15937 0.43721,0.59658 0.75595,0.75595 0.22538,0.11269 0.57777,-0.17818 0.75595,0 1.56409,1.5641 -2.39014,-0.0611 0.75595,1.51191 0.22539,0.11269 0.64327,-0.22538 0.75596,0 0.22538,0.45076 -0.22538,1.06114 0,1.5119 0.11269,0.22538 0.53057,-0.11269 0.75595,0 0.90714,0.45357 1.36071,1.81429 2.26786,2.26786 0.22538,0.11269 0.57777,-0.17818 0.75595,0 0.17818,0.17818 -0.17818,0.57777 0,0.75595 0.37797,0.37798 1.88988,-0.37797 2.26786,0 0.17817,0.17818 -0.17818,0.57777 0,0.75595 1.56409,1.5641 -0.0611,-2.39014 1.5119,0.75595 0.11269,0.22539 -0.17818,0.57778 0,0.75596 0.35636,0.35636 1.15555,-0.35636 1.51191,0 0.17818,0.17818 -0.17819,0.57777 0,0.75595 0.0605,0.0605 2.02958,-0.034 2.26785,0 1.51736,0.21676 3.02381,0.50397 4.53572,0.75595"
       id="path52"
       inkscape:connector-curvature="0" />
    <path
       style="fill:#00ffff;stroke:#000000;stroke-width:0.26458332px;stroke-linecap:butt;stroke-linejoin:miter;stroke-opacity:1"
       d="m 86.178569,134.47024 c 2.015873,3.02381 3.721084,6.27958 6.047621,9.07143 0.322633,0.38715 1.007935,0 1.511903,0 0.251986,0 0.577773,0.17817 0.755954,0 0.178179,-0.17818 -0.225382,-0.64327 0,-0.75596 0.901526,-0.45076 2.122284,0.45076 3.023809,0 0.637474,-0.31874 0.941729,-1.08427 1.511904,-1.5119 0.269549,-1.85701 1.60484,-0.31395 2.26786,-0.75596 0.59302,-0.39534 0.91888,-1.11655 1.5119,-1.5119 0.20967,-0.13978 0.53057,0.11269 0.75595,0 0.63748,-0.31874 0.91889,-1.11656 1.51191,-1.5119 0.46882,-0.31255 1.04308,-0.44341 1.5119,-0.75596 0.68816,-0.45877 1.59783,-1.93284 2.26786,-2.26785 0.45076,-0.22538 1.15555,0.35636 1.51191,0 0.17818,-0.17818 -0.11269,-0.53058 0,-0.75596 1.57304,-3.14609 -0.0522,0.80815 1.5119,-0.75595 0.17818,-0.17818 -0.17818,-0.57777 0,-0.75595 0.17818,-0.17818 0.51511,0.0741 0.75595,0 3.04643,-0.93736 6.04762,-2.01587 9.07143,-3.02381"
       id="path54"
       inkscape:connector-curvature="0" />
    <path
       style="fill:#00ffff;stroke:#000000;stroke-width:0.26458332px;stroke-linecap:butt;stroke-linejoin:miter;stroke-opacity:1"
       d="m 124.26993,109.19837 c -3.12173,0.10848 -6.24379,0.20745 -9.36517,0.32544 -0.2518,0.01 0.57777,-0.17818 0.75595,0 0.17818,0.17818 0,0.50397 0,0.75595 0.25199,0 0.57777,-0.17818 0.75596,0 0.17818,0.17818 -0.1127,0.53057 0,0.75595 0.15936,0.31874 0.59658,0.43722 0.75595,0.75596 0.11269,0.22538 -0.17818,0.57777 0,0.75595 0.17818,0.17818 0.64326,-0.22538 0.75595,0 0.22538,0.45076 -0.35636,1.15554 0,1.5119 0.35636,0.35636 1.15554,-0.35636 1.5119,0 0.35636,0.35636 -0.22538,1.06114 0,1.51191 0.1127,0.22538 0.57778,-0.17818 0.75596,0 0.17818,0.17818 -0.11269,0.53057 0,0.75595 0.15937,0.31874 0.59658,0.43721 0.75595,0.75595 0.11269,0.22538 -0.17818,0.57777 0,0.75595 1.56409,1.5641 -0.0611,-2.39014 1.5119,0.75596 0.22539,0.45076 -0.35636,1.15554 0,1.5119 0.17818,0.17818 0.64327,-0.22538 0.75596,0 0.22538,0.45076 -0.22538,1.06114 0,1.51191 0.22538,0.45076 1.15554,-0.35636 1.5119,0 0.17818,0.17818 -0.11269,0.53057 0,0.75595 0.15937,0.31874 0.59659,0.43721 0.75595,0.75595 0.11269,0.22538 -0.17818,0.57777 0,0.75595 0.39843,0.39843 1.11349,0.35753 1.51191,0.75595 0.17818,0.17819 -0.11269,0.53058 0,0.75596 0.15937,0.31873 0.50397,0.50397 0.75595,0.75595 0.25198,0.25198 0.50397,0.50397 0.75595,0.75595 1.95385,1.95385 1.06997,1.06997 3.02381,3.02381 3.65051,3.65051 -0.98836,-0.79069 3.77976,3.02381 0.55654,0.44523 1.00794,1.00794 1.51191,1.51191 1.00794,1.00793 2.01587,2.01587 3.02381,3.02381 0.25198,0.25198 0.43721,0.59658 0.75595,0.75595 0.22538,0.11269 0.64326,-0.22538 0.75595,0 0,4.28373 -0.50397,0.25198 0.75596,1.5119 0.17817,0.17818 -0.17818,0.57778 0,0.75595 0.17817,0.17819 0.50396,0 0.75595,0 0.25198,0.50397 0.35753,1.11349 0.75595,1.51191 1.56409,1.56409 -0.0611,-2.39014 1.51191,0.75595 0.11269,0.22538 0.25198,0.75596 0,0.75596 -0.25199,0 0,-0.50397 0,-0.75596 0,-0.75595 0,-1.5119 0,-2.26786 0,-1.76388 0,-3.52777 0,-5.29166 0,-2.51984 0,-5.03968 0,-7.55952 0,-0.25199 0,-0.50397 0,-0.75596 0,-0.25198 0.17817,-0.57777 0,-0.75595 -0.17819,-0.17818 -0.57778,0.17818 -0.75596,0 -0.17818,-0.17818 0.11269,-0.53057 0,-0.75595 -1.57304,-3.1461 0.0522,0.80814 -1.5119,-0.75596 -0.17818,-0.17817 0.17818,-0.57777 0,-0.75595 -0.17818,-0.17818 -0.64326,0.22539 -0.75595,0 -0.22539,-0.45076 0.22538,-1.06114 0,-1.5119 -0.11269,-0.22538 -0.57778,0.17818 -0.75596,0 -0.17818,-0.17818 0.17818,-0.57777 0,-0.75595 -0.17818,-0.17818 -0.57777,0.17818 -0.75595,0 -0.17818,-0.17818 0.17818,-0.57778 0,-0.75596 -0.17818,-0.17818 -0.57777,0.17818 -0.75595,0 -0.17818,-0.17818 0.11269,-0.53057 0,-0.75595 -0.83573,-1.67145 -0.46918,-0.23459 -1.51191,-0.75595 -3.14609,-1.57305 0.80814,0.0522 -0.75595,-1.51191 -0.17818,-0.17818 -0.50397,0 -0.75595,0 0,-0.25198 0.11269,-0.53057 0,-0.75595 -1.57305,-3.14609 0.0522,0.80814 -1.51191,-0.75595 -0.35636,-0.35636 0.35636,-1.15554 0,-1.5119 -0.17817,-0.17819 -0.57777,0.17817 -0.75595,0 -0.35636,-0.35636 0.35636,-1.15555 0,-1.51191 -0.17818,-0.17818 -0.57777,0.17818 -0.75595,0 -0.35636,-0.35636 0.35636,-1.15554 0,-1.5119 -0.17818,-0.17818 -0.53057,0.11269 -0.75595,0 -1.67146,-0.83573 -0.23459,-0.46918 -0.75596,-1.51191 -0.15936,-0.31874 -0.59658,-0.43722 -0.75595,-0.75595 -0.22538,-0.45076 0.35636,-1.15555 0,-1.51191 -0.17818,-0.17818 -0.57777,0.17818 -0.75595,0 -0.17818,-0.17818 0.17818,-0.57777 0,-0.75595 -0.17818,-0.17818 -0.75595,0.25199 -0.75595,0 0,-0.25198 1.00794,0 0.75595,0 -0.75595,0 -1.5119,0 -2.26786,0 -0.50397,0 -1.00793,0 -1.5119,0 -0.91003,0.64747 -1.62005,1.81909 -2.73007,1.94242 -1.35784,-0.39549 -2.71567,-0.79098 -4.0735,-1.18647 0,0.25199 0.17818,0.57778 0,0.75595 -0.35636,0.35636 -1.06114,-0.22538 -1.51191,0 -0.31874,0.15937 -0.43721,0.59659 -0.75595,0.75596 -0.22538,0.11269 -0.57777,-0.17818 -0.75595,0 -0.17818,0.17818 -0.25172,0.76749 0,0.75595 2.39056,-0.10962 4.73154,-0.72093 7.09731,-1.08139"
       id="path56"
       inkscape:connector-curvature="0" />
    <path
       style="fill:#00ffff;stroke:#000000;stroke-width:0.26458332px;stroke-linecap:butt;stroke-linejoin:miter;stroke-opacity:1"
       d="m 103.30231,96.451326 c 2.16768,11.208234 7.84995,1.238316 11.60245,2.48915 0.33807,0.112689 0.43722,0.596582 0.75595,0.755951 0.22538,0.112692 0.50397,0 0.75596,0 0.75595,0 1.53447,-0.183345 2.26785,0 0.34572,0.08643 0.41788,0.643263 0.75595,0.755953 0.41674,0.13891 3.89418,0 4.53572,0 0.25198,0 0.53057,-0.11269 0.75595,0 0.31874,0.15937 0.41023,0.66952 0.75595,0.75595 0.73339,0.18335 1.51191,0 2.26786,0 0.50397,0 1.0338,-0.15937 1.51191,0 0.33807,0.11269 0.41788,0.64326 0.75595,0.75595 0.4781,0.15937 1.00794,0 1.5119,0 1.00794,0 2.01587,0 3.02381,0 0.17964,0 2.85438,0.0847 3.02381,0 0.31874,-0.15936 0.43722,-0.59658 0.75595,-0.75595 0.47952,-0.23975 3.28868,0.24554 3.77977,0 0.31873,-0.15937 0.41788,-0.64326 0.75595,-0.75595 0.47811,-0.15937 1.06114,0.22538 1.5119,0 0.22538,-0.11269 -0.17818,-0.577774 0,-0.755953 0.14714,-0.14714 3.50373,0.138018 3.77976,0 0.22539,-0.112691 -0.17818,-0.577773 0,-0.755951 0.17819,-0.178181 0.50397,0 0.75596,0 1.25992,0 2.51984,0 3.77976,0 0.25198,0 0.57777,-0.178181 0.75595,0 0.17818,0.178178 -0.17818,0.57777 0,0.755951 0.17818,0.178179 0.57777,-0.178181 0.75595,0 0.17818,0.178179 0,0.503973 0,0.755953 0,0.3953 0.0994,2.82504 0,3.02381 -0.31873,0.63747 -1.11655,0.91889 -1.5119,1.5119 -0.31255,0.46882 -0.35753,1.11349 -0.75595,1.51191 -0.17818,0.17818 -0.53057,-0.11269 -0.75596,0 -1.59372,0.79686 0.0818,0.71504 -1.5119,1.5119 -0.22538,0.11269 -0.53057,-0.11269 -0.75595,0 -0.90715,0.45358 -1.36072,1.81429 -2.26786,2.26786 -0.45076,0.22538 -1.15554,-0.35636 -1.5119,0 -0.17819,0.17818 0.11269,0.53057 0,0.75595 -0.15937,0.31874 -0.50397,0.50397 -0.75596,0.75596 -0.25198,0.25198 -0.43721,0.59658 -0.75595,0.75595 -0.22538,0.11269 -0.57777,-0.17818 -0.75595,0 -0.17818,0.17818 0.17818,0.57777 0,0.75595 -0.17818,0.17818 -0.57778,-0.17818 -0.75595,0 -0.35636,0.35636 0.35636,1.15555 0,1.51191 -0.17818,0.17817 -0.57778,-0.17819 -0.75596,0 -0.17818,0.17817 0.17818,0.57777 0,0.75595 -0.17818,0.17818 -0.57777,-0.17818 -0.75595,0 -0.46827,0.46827 0.75013,1.96664 -0.75595,2.26785 -0.98837,0.19767 -2.01587,0 -3.02381,0"
       id="path58"
       inkscape:connector-curvature="0" />
  </g>
</svg>
